<svg width="120" height="120" viewBox="0 0 120 120" fill="none" xmlns="http://www.w3.org/2000/svg">
  <defs>
    <linearGradient id="plate" x1="0" y1="0" x2="1" y2="1">
      <stop offset="0%" stop-color="#334155"/><stop offset="100%" stop-color="#1e293b"/>
    </linearGradient>
    <linearGradient id="ember" x1="0" y1="0" x2="0" y2="1">
      <stop offset="0%" stop-color="#fde68a"/><stop offset="40%" stop-color="#fbbf24"/><stop offset="100%" stop-color="#f97316"/>
    </linearGradient>
    <radialGradient id="glow" cx="50%" cy="50%" r="55%">
      <stop offset="0%" stop-color="#f97316" stop-opacity=".55"/><stop offset="100%" stop-color="#f97316" stop-opacity="0"/>
    </radialGradient>
    <filter id="blur"><feGaussianBlur stdDeviation="2.5"/></filter>
  </defs>
  <rect x="20" y="20" width="80" height="80" rx="14" fill="url(#plate)" stroke="#475569" stroke-width="1.5"/>
  <circle cx="30" cy="30" r="2.2" fill="#0f172a"/><circle cx="90" cy="30" r="2.2" fill="#0f172a"/>
  <circle cx="30" cy="90" r="2.2" fill="#0f172a"/><circle cx="90" cy="90" r="2.2" fill="#0f172a"/>
  <circle cx="60" cy="60" r="34" fill="url(#glow)"/>
  <g filter="url(#blur)" opacity=".9">
    <path d="M44 38 H80 V50 H56 V58 H74 V69 H56 V84 H44 Z" fill="url(#ember)"/>
  </g>
  <path d="M44 38 H80 V50 H56 V58 H74 V69 H56 V84 H44 Z" fill="url(#ember)"/>
  <path d="M44 38 H80 V41 H44 Z" fill="#fff7e6" opacity=".7"/>
</svg>
